<?xml version="1.0" standalone="no"?>
<!DOCTYPE svg PUBLIC "-//W3C//DTD SVG 20010904//EN"
 "http://www.w3.org/TR/2001/REC-SVG-20010904/DTD/svg10.dtd">
<svg version="1.0" xmlns="http://www.w3.org/2000/svg"
 width="700.000000pt" height="700.000000pt" viewBox="0 0 700.000000 700.000000"
 preserveAspectRatio="xMidYMid meet">
<metadata>
Created by potrace 1.14, written by Peter Selinger 2001-2017
</metadata>
<g transform="translate(0.000000,700.000000) scale(0.100000,-0.100000)"
fill="#000000" stroke="none">
<path d="M2505 6688 c-131 -40 -199 -76 -340 -182 -137 -103 -254 -198 -521
-424 -64 -55 -113 -79 -218 -106 -172 -46 -346 -122 -491 -215 -103 -66 -327
-294 -404 -410 -169 -255 -254 -529 -255 -821 -1 -183 12 -280 56 -435 58
-206 150 -377 303 -565 49 -61 190 -190 264 -244 162 -117 382 -210 604 -257
141 -30 404 -27 602 7 36 6 188 49 253 71 73 24 171 71 220 105 56 38 63 47
327 368 120 146 223 270 230 275 29 24 97 143 115 202 21 69 28 149 35 403 5
189 8 207 33 232 21 21 117 32 287 32 111 0 154 -4 300 -27 103 -17 249 -13
322 8 77 23 157 64 286 148 124 80 136 82 246 43 101 -37 148 -13 230 114 95
147 144 343 144 580 1 177 -13 279 -54 400 -101 304 -284 535 -499 631 -37 17
-26 18 -217 -24 -115 -26 -129 -28 -247 -29 -105 -1 -315 10 -326 17 -3 2 -43
6 -89 10 -46 4 -91 8 -100 10 -9 1 -52 6 -96 9 -44 4 -87 9 -95 11 -8 2 -46 6
-85 10 -38 3 -81 8 -95 10 -14 2 -52 7 -85 10 -33 3 -71 8 -85 10 -32 5 -102
13 -165 20 -27 3 -85 10 -128 16 -104 13 -189 9 -262 -13z m280 -233 c39 -4
84 -9 100 -11 17 -2 55 -6 85 -9 30 -3 71 -8 90 -10 19 -3 58 -7 85 -10 28 -3
61 -8 75 -10 14 -2 57 -7 95 -11 39 -3 72 -8 75 -9 3 -2 43 -6 90 -10 47 -4
93 -9 104 -11 10 -2 51 -6 90 -9 39 -3 80 -8 91 -10 32 -6 264 -19 335 -18 98
1 207 12 289 29 122 25 136 25 184 -7 68 -45 135 -130 205 -259 80 -150 120
-329 117 -530 -2 -129 -6 -152 -52 -306 l-28 -90 -120 0 c-143 0 -170 -10
-339 -123 -59 -40 -133 -82 -164 -93 -85 -30 -201 -28 -387 8 -16 3 -100 7
-185 9 -138 3 -198 -1 -320 -21 -19 -3 -113 -7 -209 -9 -96 -3 -181 -7 -190
-9 -9 -3 -32 -8 -51 -11 -55 -9 -115 -40 -149 -76 -33 -34 -61 -111 -61 -167
0 -67 -83 -111 -209 -111 -47 0 -90 31 -92 66 0 10 -2 27 -4 38 -6 30 15 114
45 180 57 127 163 210 460 363 250 128 287 149 360 200 155 111 253 256 304
456 30 114 31 136 11 176 -33 64 -101 86 -163 52 -43 -23 -57 -49 -77 -145 -9
-43 -20 -77 -25 -75 -4 2 -34 27 -66 57 -115 106 -258 201 -303 201 -61 0
-121 -54 -121 -109 0 -51 35 -93 140 -170 48 -34 117 -91 154 -127 64 -63 66
-67 50 -85 -20 -22 -160 -111 -178 -113 -7 0 -55 37 -105 84 -254 233 -493
348 -846 407 -16 3 -31 6 -33 8 -1 1 30 29 70 61 40 32 75 60 78 64 3 3 23 18
45 35 22 16 42 31 45 35 3 3 25 20 50 38 25 18 71 53 103 76 79 58 192 115
246 124 49 8 101 7 206 -3z m-760 -699 c103 -23 189 -48 199 -58 6 -4 16 -8
24 -8 23 0 193 -89 267 -141 39 -27 92 -68 118 -91 l48 -43 -23 -22 c-13 -11
-42 -30 -66 -42 -319 -160 -519 -445 -500 -711 12 -167 132 -299 286 -316 88
-9 166 18 352 122 222 124 289 157 305 150 13 -4 14 -25 10 -113 -8 -171 -25
-268 -67 -388 -21 -60 -99 -225 -118 -248 -5 -7 -36 -48 -68 -92 -70 -96 -202
-222 -301 -289 -438 -293 -997 -291 -1430 7 -84 58 -244 212 -288 277 -15 24
-40 61 -56 84 -42 63 -102 183 -131 266 -47 128 -59 217 -60 410 0 198 13 288
61 415 123 325 334 567 623 714 72 37 195 85 243 96 12 2 40 9 62 15 22 5 69
13 105 16 36 4 67 8 68 9 11 10 278 -6 337 -19z"/>
<path d="M5668 5597 c-24 -19 -50 -79 -124 -296 -79 -227 -154 -475 -154 -507
0 -13 13 -38 28 -55 21 -24 38 -32 75 -36 85 -10 106 19 192 269 25 73 52 148
59 167 l13 33 43 -68 c56 -89 177 -332 225 -452 39 -100 79 -229 100 -327 65
-303 89 -379 122 -389 85 -25 152 5 174 79 5 17 -6 112 -26 225 -46 264 -194
657 -347 923 -37 66 -68 120 -68 122 0 2 46 -12 103 -31 56 -19 156 -50 221
-70 102 -29 124 -33 152 -24 43 14 74 65 74 119 0 71 -22 84 -340 192 -377
129 -486 155 -522 126z"/>
<path d="M5115 3865 c-133 -21 -147 -23 -230 -49 -517 -155 -917 -576 -1043
-1096 -27 -112 -32 -158 -37 -339 -4 -167 -8 -186 -34 -201 -46 -24 -345 -33
-466 -13 -267 43 -409 34 -555 -35 -30 -14 -102 -57 -159 -95 -125 -83 -152
-89 -259 -54 -101 33 -124 27 -185 -48 -194 -240 -251 -703 -130 -1062 91
-272 266 -500 460 -597 64 -33 93 -32 206 1 87 27 102 28 292 28 181 0 379 -9
445 -20 14 -2 54 -7 90 -9 36 -3 85 -8 110 -11 101 -11 137 -16 170 -19 123
-14 167 -19 184 -22 10 -2 44 -6 75 -10 31 -3 65 -8 76 -10 11 -2 45 -6 75 -9
30 -4 64 -9 74 -12 10 -3 68 -7 128 -8 225 -6 340 49 698 334 52 42 124 101
160 131 36 31 76 65 90 77 113 96 140 117 175 138 22 13 78 33 125 45 47 12
94 25 105 30 11 4 43 16 70 26 354 125 661 398 829 739 119 239 160 416 159
685 -1 245 -37 409 -139 627 -216 465 -656 787 -1169 858 -89 12 -308 12 -390
0z m470 -259 c403 -88 742 -377 899 -767 68 -168 78 -224 82 -434 1 -104 -2
-219 -7 -255 -9 -64 -45 -195 -59 -215 -3 -5 -14 -31 -23 -56 -24 -63 -110
-212 -165 -283 -96 -124 -236 -249 -352 -314 -30 -17 -136 -56 -235 -88 -99
-31 -184 -60 -190 -64 -5 -4 -30 -6 -55 -5 -25 2 -101 6 -170 10 -69 3 -141 8
-160 10 -57 7 -134 17 -150 20 -8 1 -33 6 -55 9 -158 26 -295 94 -468 233 -82
66 -82 64 54 142 111 63 180 113 248 181 56 56 141 165 141 183 0 6 6 18 14
26 7 9 24 48 37 86 19 56 24 91 24 175 0 92 -3 112 -26 160 -82 174 -240 238
-421 170 -29 -11 -109 -52 -178 -91 -179 -101 -299 -161 -314 -156 -24 9 -9
273 23 397 37 147 135 351 207 436 13 15 24 30 24 33 0 10 132 143 190 192
137 115 381 238 526 264 21 4 57 11 79 15 75 14 394 4 480 -14z m-860 -1311
c14 -13 25 -32 26 -42 0 -10 2 -27 4 -38 2 -11 -2 -48 -10 -83 -43 -185 -146
-280 -500 -462 -303 -156 -380 -203 -461 -285 -83 -83 -143 -189 -188 -334
-38 -120 -42 -178 -17 -219 27 -42 78 -67 123 -58 39 7 98 56 99 83 2 42 29
153 37 153 4 0 36 -28 72 -62 69 -65 181 -147 243 -180 75 -38 162 1 177 80
10 59 -12 89 -130 174 -105 75 -220 184 -220 208 0 13 139 109 180 124 9 4 41
-19 80 -55 256 -240 460 -349 777 -415 71 -14 129 -28 131 -29 3 -3 -57 -52
-282 -230 -84 -66 -240 -165 -294 -186 -60 -23 -193 -30 -292 -15 -50 8 -46 7
-260 35 -85 11 -182 23 -215 26 -33 4 -71 8 -85 11 -14 2 -56 6 -95 9 -38 3
-79 8 -90 10 -11 2 -63 7 -115 10 -52 4 -106 9 -120 11 -14 2 -122 6 -240 9
-210 4 -320 -5 -435 -34 -22 -6 -48 -11 -57 -11 -23 0 -156 133 -200 201 -83
126 -149 294 -162 409 -8 70 -8 269 -1 340 9 81 25 149 50 205 31 72 42 79
117 69 35 -4 65 -7 68 -7 3 0 27 3 53 6 61 8 123 37 208 98 198 142 285 159
579 110 354 -57 650 7 1090 236 331 173 316 167 355 128z"/>
<path d="M731 2940 c-49 -25 -65 -56 -64 -124 3 -259 194 -821 387 -1141 20
-33 36 -65 36 -71 0 -7 -25 -3 -67 12 -150 50 -301 94 -346 100 -45 6 -50 5
-82 -26 -49 -48 -57 -78 -34 -129 22 -50 54 -66 289 -146 85 -29 162 -55 170
-58 43 -17 287 -88 319 -93 49 -8 74 6 105 59 66 113 258 704 248 765 -2 12
-20 38 -39 57 -66 64 -146 37 -189 -64 -17 -38 -134 -370 -134 -380 0 -15 -96
146 -149 250 -90 177 -200 471 -225 601 -7 37 -45 219 -58 277 -21 96 -98 147
-167 111z"/>
</g>
</svg>
