<?xml version="1.0" encoding="UTF-8" standalone="no"?>
<!-- Created with Inkscape (http://www.inkscape.org/) -->

<svg
   width="750"
   height="200"
   viewBox="0 0 198.4375 52.916668"
   version="1.1"
   id="svg5"
   xml:space="preserve"
   inkscape:version="1.2.2 (b0a8486541, 2022-12-01)"
   sodipodi:docname="swapnotch.svg"
   xmlns:inkscape="http://www.inkscape.org/namespaces/inkscape"
   xmlns:sodipodi="http://sodipodi.sourceforge.net/DTD/sodipodi-0.dtd"
   xmlns="http://www.w3.org/2000/svg"
   xmlns:svg="http://www.w3.org/2000/svg"><sodipodi:namedview
     id="namedview7"
     pagecolor="#ffffff"
     bordercolor="#000000"
     borderopacity="0.25"
     inkscape:showpageshadow="2"
     inkscape:pageopacity="0.0"
     inkscape:pagecheckerboard="0"
     inkscape:deskcolor="#d1d1d1"
     inkscape:document-units="mm"
     showgrid="true"
     inkscape:zoom="1.0419012"
     inkscape:cx="384.87334"
     inkscape:cy="155.0051"
     inkscape:window-width="952"
     inkscape:window-height="1004"
     inkscape:window-x="960"
     inkscape:window-y="0"
     inkscape:window-maximized="0"
     inkscape:current-layer="g281"><inkscape:grid
       dotted="false"
       type="xygrid"
       id="grid425" /></sodipodi:namedview><defs
     id="defs2" /><g
     inkscape:label="Layer 1"
     inkscape:groupmode="layer"
     id="layer1"
     transform="translate(-11.514889,-92.226355)"><g
       id="g281"
       transform="matrix(0.41117595,0,0,0.41079413,2.1751917,61.413552)"><path
         style="fill:#000000;stroke-width:0.264583"
         d="m 102.05454,196.59342 c -7.294047,-1.06826 -17.227017,-2.0545 -20.902082,-2.07536 -3.475286,-0.0197 -4.22258,0.0559 -6.010208,0.60863 -1.808644,0.55918 -2.140559,0.59147 -2.910417,0.28306 -4.285765,-1.7169 -8.323219,-7.56714 -9.370043,-13.57712 -0.928746,-5.33208 -0.04836,-11.08729 2.234903,-14.60993 1.580669,-2.43867 2.0921,-2.67814 4.093165,-1.91653 1.8376,0.6994 2.259523,0.62015 4.189592,-0.78694 3.862488,-2.8159 6.781059,-3.45386 11.726923,-2.56334 1.93094,0.34768 3.32041,0.42611 5.53019,0.31217 4.47343,-0.23065 4.14194,0.0627 4.14194,-3.66559 0,-1.83614 0.17357,-3.9956 0.41516,-5.16523 2.67021,-12.92732 14.360987,-21.96914 27.366087,-21.16533 11.64854,0.71996 21.26515,8.76512 24.13135,20.18806 0.87303,3.47938 0.82276,9.03124 -0.11353,12.53755 -1.61727,6.05658 -5.06602,11.15897 -10.03018,14.83959 -2.36258,1.7517 -6.3748,3.61255 -9.27697,4.30263 -2.32726,0.55336 -2.43917,0.61637 -4.93503,2.77832 -4.52754,3.92182 -8.92401,7.35661 -10.65638,8.32541 -3.09176,1.72901 -5.10658,2.01161 -9.62447,1.34995 z m 5.77183,-4.18658 c 1.48943,-0.44825 3.58171,-1.83967 7.54703,-5.01901 l 3.00011,-2.40544 -2.33865,-0.45902 c -5.21607,-1.02378 -9.32453,-3.1427 -13.07331,-6.74251 l -1.73881,-1.66971 -1.568477,0.94153 c -0.86266,0.51784 -1.68207,1.05318 -1.82092,1.18964 -0.33276,0.32703 1.66109,2.35626 3.559737,3.62292 2.27245,1.51604 2.64677,1.91636 2.63742,2.82067 -0.005,0.44758 -0.16316,1.01746 -0.35229,1.2664 -0.45277,0.59594 -1.63233,1.03119 -2.21669,0.81794 -1.05339,-0.38441 -3.462679,-2.06913 -4.742627,-3.31635 l -1.3669,-1.33194 -0.28527,1.02741 c -0.156897,0.56507 -0.28594,1.27454 -0.28675,1.5766 -0.002,0.81682 -1.17424,1.78796 -2.15786,1.78796 -0.96795,0 -2.07935,-1.0836 -2.07304,-2.02118 0.007,-1.11235 0.79088,-3.90758 1.48031,-5.28198 1.76697,-3.52251 3.36762,-4.86885 9.342437,-7.8581 6.73286,-3.36851 8.4804,-4.76078 9.54414,-7.60389 0.91044,-2.43335 0.5291,-4.31055 -0.87565,-4.31055 -0.29215,0 -1.79174,0.70817 -3.33243,1.5737 -8.875637,4.98617 -14.671617,6.37503 -21.473087,5.14549 -4.802446,-0.86817 -6.357738,-0.53271 -9.887779,2.1327 -1.905141,1.43851 -3.671128,1.9257 -5.53742,1.52766 -1.443019,-0.30776 -1.610836,-0.15698 -2.43541,2.18816 -0.596929,1.69771 -0.807656,6.63394 -0.386453,9.05266 0.607983,3.4913 2.770838,7.42815 5.165225,9.40181 l 0.966255,0.79647 2.164541,-0.48921 c 3.90372,-0.88228 12.350291,-0.37891 26.506198,1.57962 3.52449,0.48763 4.57945,0.49804 6.03642,0.0596 z m 17.5115,-12.11079 c -2.08171,0 4.9798,-1.48343 7.21888,-2.81468 4.7615,-2.83094 8.4219,-7.78593 10.00675,-13.54584 0.64533,-2.34538 0.67763,-8.20651 0.0576,-10.45042 -1.72483,-6.24204 -5.07284,-10.78845 -10.24895,-13.91751 -3.5662,-2.15584 -6.74157,-3.00425 -11.26759,-3.01051 -3.75823,-0.005 -5.22261,0.26252 -8.33438,1.52369 -7.01579,2.84345 -12.10935,9.03046 -13.508557,16.40849 -0.27052,1.42641 -0.39012,5.42598 -0.16887,5.64722 0.16427,0.16427 2.251397,-0.88284 5.343057,-2.68062 3.23548,-1.88141 4.56804,-2.34969 6.23154,-2.18985 2.83907,0.2728 5.01325,2.90965 5.01325,6.08009 0,4.6847 -3.30905,9.10779 -8.94728,11.95949 -0.77366,0.3913 -1.35996,0.85153 -1.3029,1.02272 0.20173,0.6052 3.79597,3.14429 5.88455,4.15704 4.39687,2.13205 19.38304,1.81069 14.02292,1.81069 z M 44.953098,175.7936 c -6.158421,-2.07549 -6.311358,-2.14448 -6.738237,-3.03966 -0.390996,-0.81992 -0.395405,-0.9897 -0.04206,-1.61923 0.217105,-0.3868 0.692128,-0.8702 1.055607,-1.07421 0.600212,-0.33689 0.988183,-0.26752 4.226836,0.75576 1.96128,0.61968 3.733393,1.19051 3.938028,1.2685 0.223032,0.085 0.08127,-0.3263 -0.353922,-1.02684 -2.663317,-4.28724 -5.413855,-11.31484 -6.484183,-16.56702 -0.762782,-3.74304 -0.730922,-4.92251 0.151722,-5.6168 0.902926,-0.71024 1.752512,-0.69488 2.596418,0.047 0.549738,0.48324 0.75327,1.0436 1.081135,2.97656 1.020883,6.01872 3.420878,12.43722 6.410091,17.14305 l 0.805484,1.26805 1.237385,-3.71281 c 1.302851,-3.90924 1.888786,-4.77642 3.227345,-4.77642 0.870299,0 1.936668,1.12238 1.936668,2.03838 0,0.40673 -0.904139,3.478 -2.009198,6.82505 -2.132089,6.45775 -2.597708,7.29708 -4.024826,7.25527 -0.392067,-0.0115 -3.548501,-0.97655 -7.014296,-2.14458 z m 10.25686,-28.63036 C 48.004306,145.7852 42.508866,142.41926 38.366491,136.84669 31.641885,127.80033 31.45404,115.464 37.898937,106.14113 c 1.465836,-2.12041 4.649623,-5.32439 6.676719,-6.719066 2.141171,-1.473163 6.076505,-3.216087 8.635809,-3.82472 2.42212,-0.57601 2.50041,-0.619684 5.014309,-2.797261 4.547534,-3.939147 8.926877,-7.35822 10.682046,-8.339766 0.94325,-0.527495 2.525305,-1.159045 3.515675,-1.403443 1.57389,-0.388397 2.120331,-0.40348 4.338777,-0.119759 8.496241,1.086598 18.608671,2.174592 21.455811,2.308423 3.269237,0.153674 5.143077,-0.06673 8.334367,-0.980324 0.93438,-0.267487 1.21159,-0.230651 2.36679,0.314497 3.97135,1.874126 7.80045,7.681738 8.78272,13.320809 0.93044,5.34145 0.0444,11.06882 -2.26511,14.64212 -1.45946,2.25805 -2.34313,2.62085 -4.34567,1.78414 -1.45029,-0.60597 -2.06902,-0.49049 -3.63104,0.67768 -0.79027,0.59101 -2.30368,1.50387 -3.36314,2.0286 -2.44952,1.21318 -4.835897,1.41453 -8.642207,0.72919 -1.93094,-0.34768 -3.32041,-0.42611 -5.53019,-0.31217 -4.45916,0.22991 -4.05635,-0.20138 -4.20843,4.50607 -0.13796,4.26999 0.218968,7.20775 -2.1777,10.11232 l -8.718427,10.56603 c -1.799682,2.18107 -6.19905,3.44362 -8.892651,4.11003 -2.876367,0.71163 -8.115525,0.91631 -10.717437,0.41871 z m 8.841271,-4.38284 c 8.216757,-1.69545 15.028177,-8.30069 16.960693,-16.44729 0.48863,-2.05983 0.783739,-6.42424 0.456512,-6.75146 -0.16847,-0.16848 -2.30951,0.9131 -5.411729,2.73381 -3.101403,1.82023 -4.485967,2.29779 -6.187767,2.13427 -2.813042,-0.2703 -4.988354,-2.92065 -4.988354,-6.0777 0,-4.6847 3.309051,-9.10779 8.947279,-11.95949 0.773661,-0.3913 1.359964,-0.85153 1.302899,-1.02272 -0.05706,-0.1712 -0.928182,-0.94563 -1.935819,-1.72097 -11.061429,-8.511325 -27.079485,-4.913959 -33.319363,7.48293 -1.788627,3.5535 -2.329033,5.89424 -2.321201,10.05417 0.0076,4.05702 0.536508,6.41559 2.170725,9.68065 4.576598,9.14376 14.393141,13.94338 24.326125,11.8938 z m 10.466538,-24.4478 c 0,-6.04571 7.953176,-4.05523 11.776206,-4.78044 2.87025,-0.54448 6.63262,-0.51302 10.03105,0.0839 3.959137,0.69537 5.302017,0.36708 8.726177,-2.13323 2.08357,-1.52142 3.2117,-1.87772 5.57442,-1.76058 l 1.74767,0.0866 0.71976,-2.11666 c 1.33142,-3.91544 0.91038,-9.687005 -0.98815,-13.545292 -1.06998,-2.17447 -2.62383,-4.247078 -3.82563,-5.102837 -0.81427,-0.579809 -0.8487,-0.581743 -2.99507,-0.168289 -4.89303,0.942542 -6.941477,0.847138 -22.792415,-1.061521 -6.853722,-0.825277 -8.106243,-0.912367 -9.295125,-0.646307 -1.602258,0.35857 -3.747262,1.735737 -8.013467,5.144913 l -3.004684,2.40108 2.343226,0.459921 c 5.221409,1.024842 9.327861,3.142407 13.078878,6.744372 l 1.739817,1.67068 1.687473,-1.02034 c 0.928111,-0.56119 1.723893,-1.12961 1.768406,-1.26315 0.123182,-0.36954 -2.226664,-2.552101 -4.157392,-3.861416 -1.817195,-1.232325 -2.313636,-2.027886 -2.012966,-3.225848 0.203399,-0.810403 1.672315,-1.583342 2.461197,-1.295073 1.065723,0.38943 3.469178,2.06809 4.755125,3.321147 l 1.3669,1.331939 0.28527,-1.027408 c 0.156899,-0.565075 0.28594,-1.274546 0.28675,-1.576601 0.002,-0.816824 1.17424,-1.787961 2.15786,-1.787961 0.96795,0 2.07935,1.0836 2.07304,2.021178 -0.007,1.033253 -0.77243,3.874568 -1.3526,5.020663 -1.93112,3.81482 -3.67183,5.28723 -9.850608,8.33228 -6.32143,3.11536 -8.100925,4.55352 -9.171172,7.41202 -0.90406,2.41462 -0.516721,4.28955 0.886166,4.28955 0.293809,0 3.993888,0.23623 3.993888,-1.9473 z m 62.476653,12.54708 c -0.28652,-0.31659 -0.74347,-1.91068 -1.19457,-4.16719 -0.4018,-2.00995 -1.10857,-4.78555 -1.5706,-6.168 -0.89188,-2.66859 -3.15412,-7.46042 -4.55926,-9.65729 l -0.84615,-1.32292 -1.21382,3.61524 c -0.6676,1.98838 -1.44063,3.86361 -1.71785,4.16718 -0.96597,1.05782 -3.08552,0.5134 -3.43587,-0.88253 -0.11201,-0.44627 0.51946,-2.68949 1.99409,-7.08378 1.1869,-3.53688 2.28396,-6.59192 2.43791,-6.78899 0.78955,-1.01066 1.36672,-0.91765 8.08074,1.30219 4.18269,1.38291 6.67387,2.34196 6.97143,2.68382 1.05113,1.20761 0.13975,3.38375 -1.41713,3.38375 -0.36048,0 -2.25285,-0.53578 -4.20526,-1.19063 -1.95242,-0.65484 -3.57798,-1.19062 -3.61237,-1.19062 -0.0344,0 0.55079,1.04179 1.30039,2.3151 3.14776,5.34694 5.633,12.58864 6.42417,18.71927 0.14392,1.11526 0.0807,1.43712 -0.40244,2.05052 -0.71531,0.90806 -2.30424,1.02061 -3.03341,0.21488 z"
         id="path179"
         sodipodi:nodetypes="sscsssssssscsssssssscscsscssscssscscscssssssssssscssccssscscssssssssssscssssssssssscsssssccsssssssssssssssssssssssssssssssssscssssssscssssssscsscsssssscscscsssssssssscsssssssssssscs" /></g><text
       xml:space="preserve"
       style="font-style:normal;font-variant:normal;font-weight:normal;font-stretch:normal;font-size:25.4px;font-family:'Open Sans';-inkscape-font-specification:'Open Sans';letter-spacing:1.32292px;fill:#000000;stroke-width:0.264583"
       x="66.261383"
       y="127.13667"
       id="text337"><tspan
         sodipodi:role="line"
         style="font-style:normal;font-variant:normal;font-weight:normal;font-stretch:normal;font-size:25.4px;font-family:'Open Sans';-inkscape-font-specification:'Open Sans';stroke-width:0.264583"
         x="66.261383"
         y="127.13667"
         id="tspan339">swapnotch</tspan></text></g></svg>
